<?xml version="1.0" standalone="no"?>
<!DOCTYPE svg PUBLIC "-//W3C//DTD SVG 20010904//EN"
 "http://www.w3.org/TR/2001/REC-SVG-20010904/DTD/svg10.dtd">
<svg version="1.0" xmlns="http://www.w3.org/2000/svg"
 width="225.000000pt" height="225.000000pt" viewBox="0 0 225.000000 225.000000"
 preserveAspectRatio="xMidYMid meet">
<metadata>
Created by potrace 1.14, written by Peter Selinger 2001-2017
</metadata>
<g transform="translate(0.000000,225.000000) scale(0.100000,-0.100000)"
fill="#000000" stroke="none">
<path d="M830 1825 c-25 -8 -58 -27 -74 -44 l-28 -29 66 5 c36 3 66 2 66 -3 0
-5 -18 -19 -39 -31 -21 -12 -53 -43 -70 -69 -26 -39 -31 -57 -31 -105 0 -37 5
-61 13 -66 7 -4 18 -26 25 -49 14 -49 52 -108 72 -112 12 -2 15 9 15 44 0 26
5 49 10 51 16 5 35 -67 24 -94 -25 -67 -1 -131 74 -193 47 -39 48 -40 25 -49
-48 -18 -120 -31 -177 -31 -41 0 -65 -5 -75 -16 -19 -18 -19 -20 -6 -44 11
-21 60 -40 101 -40 44 0 35 -13 -33 -51 -50 -27 -64 -40 -66 -61 -3 -23 -10
-28 -51 -37 -35 -7 -57 -7 -80 2 -23 9 -36 9 -49 0 -37 -24 -1 -103 48 -103
15 0 17 -6 13 -37 -4 -33 0 -42 26 -67 30 -29 31 -29 73 -15 24 7 53 19 66 25
25 12 35 12 65 -1 25 -11 115 21 163 58 23 18 52 39 64 47 12 8 42 43 67 78
25 34 49 62 54 62 5 0 20 18 35 39 25 39 25 40 8 76 -9 20 -23 39 -31 42 -27
11 -14 38 20 40 17 1 46 5 64 8 27 5 38 0 71 -30 48 -43 66 -46 46 -7 -18 36
-18 42 6 42 47 0 95 45 103 98 2 11 15 38 30 61 33 50 67 133 67 165 0 18 12
32 45 53 45 28 56 43 33 43 -7 0 2 12 19 26 l33 25 -20 51 c-11 29 -26 59 -34
67 -14 13 -18 13 -34 -2 -11 -10 -27 -35 -37 -57 -20 -45 -31 -50 -40 -20 -13
42 -103 133 -174 175 -82 49 -174 71 -251 61 -36 -5 -65 -1 -109 14 -69 23
-136 25 -201 5z m174 -390 c3 -8 1 -15 -4 -15 -6 0 -10 7 -10 15 0 8 2 15 4
15 2 0 6 -7 10 -15z m23 -60 c2 -6 -17 -10 -42 -10 -45 0 -56 10 -34 32 13 13
70 -4 76 -22z m163 -5 c0 -11 -4 -20 -9 -20 -5 0 -7 9 -4 20 3 11 7 20 9 20 2
0 4 -9 4 -20z m78 -39 c-15 -5 -19 4 -11 24 6 18 7 18 13 -1 4 -10 3 -21 -2
-23z m-207 8 c4 -7 5 -27 3 -44 -4 -21 -3 -26 4 -16 8 12 15 9 36 -15 14 -16
26 -37 26 -47 0 -40 51 -88 92 -87 7 1 -1 7 -17 14 -46 20 -57 39 -47 78 4 18
12 33 18 33 16 1 46 21 44 31 -1 5 5 13 13 18 18 11 67 -7 67 -24 0 -7 -6 -8
-19 0 -11 5 -28 10 -38 10 -22 -1 43 -31 72 -34 11 -1 24 3 28 9 12 16 -4 -47
-22 -85 -9 -19 -27 -40 -41 -47 -16 -8 -19 -13 -9 -13 22 0 66 36 74 60 6 18
30 31 65 35 8 2 23 6 32 9 11 5 22 0 33 -18 20 -30 15 -61 -16 -99 -17 -23
-28 -27 -68 -27 -27 0 -70 -4 -97 -9 -27 -5 -74 -11 -104 -12 l-55 -3 -2 44
c-1 25 -2 50 -2 56 -1 12 -75 37 -79 26 -1 -4 -10 -24 -20 -46 l-17 -39 -47
39 c-45 38 -88 99 -88 124 0 7 12 1 26 -14 15 -14 32 -26 38 -26 6 0 -1 10
-16 21 -21 16 -28 29 -28 55 0 19 5 34 10 34 6 0 10 -4 10 -9 0 -18 33 -21 46
-4 11 15 15 16 26 4 10 -11 10 -14 1 -18 -7 -3 -13 -10 -13 -16 0 -6 8 -4 17
6 16 16 16 18 1 34 -13 13 -20 14 -31 5 -18 -15 -30 -3 -15 15 14 17 97 11
109 -8z m7 -194 c-6 -14 -13 -24 -14 -22 -6 6 9 47 17 47 5 0 3 -11 -3 -25z
m17 -65 c3 -6 -1 -7 -9 -4 -18 7 -21 14 -7 14 6 0 13 -4 16 -10z m-325 -54 c0
-2 -3 -11 -6 -20 -9 -23 -24 -20 -24 4 0 11 7 20 15 20 8 0 15 -2 15 -4z m286
-51 c-3 -8 -1 -15 4 -15 6 0 10 5 10 12 0 6 2 9 5 6 3 -3 3 -13 -1 -22 -6 -17
-44 -23 -44 -7 0 18 12 41 22 41 6 0 8 -7 4 -15z m-226 -108 c0 -30 18 -47 49
-47 l25 0 -30 -28 c-52 -51 -67 -55 -98 -24 -38 41 -36 84 7 105 43 21 47 21
47 -6z m120 -58 c0 -22 -13 -25 -29 -6 -8 10 -7 17 1 25 15 15 28 6 28 -19z
m-200 -29 c0 -10 -56 -30 -64 -23 -12 12 -5 22 22 31 28 10 42 7 42 -8z m-193
-22 c-3 -7 -5 -2 -5 12 0 14 2 19 5 13 2 -7 2 -19 0 -25z m73 10 c0 -9 3 -9
12 0 18 18 28 15 28 -9 0 -15 -5 -19 -15 -15 -8 3 -15 1 -15 -4 0 -15 -26 -12
-39 3 -8 10 -7 17 1 25 15 15 28 15 28 0z m338 -62 c18 -9 30 -21 27 -27 -4
-5 -11 -7 -16 -4 -5 4 -9 2 -9 -4 0 -14 -47 -38 -90 -46 -31 -6 -37 -3 -53 24
-25 42 -14 78 32 100 35 17 36 17 56 -4 11 -12 35 -30 53 -39z m-185 29 c11
-8 17 -23 15 -36 -2 -19 -11 -25 -47 -31 -37 -6 -51 -4 -79 14 l-35 21 49 23
c57 27 72 28 97 9z m-156 -97 c-3 -7 -5 -2 -5 12 0 14 2 19 5 13 2 -7 2 -19 0
-25z m186 8 c7 -17 -54 -29 -65 -12 -5 7 -8 4 -8 -6 0 -20 -20 -25 -20 -5 0 6
-5 4 -11 -6 -10 -18 -11 -18 -25 0 -21 28 -17 32 26 31 23 0 44 2 47 6 12 11
51 6 56 -8z"/>
<path d="M960 1267 c15 -20 62 -20 66 1 1 7 0 8 -3 2 -7 -14 -46 -13 -63 3
-12 10 -12 9 0 -6z"/>
<path d="M1172 1230 c0 -14 2 -19 5 -12 2 6 2 18 0 25 -3 6 -5 1 -5 -13z"/>
<path d="M1217 1232 c-21 -23 -21 -36 -1 -56 37 -37 105 -5 103 49 0 13 -4 7
-12 -15 -10 -29 -18 -36 -43 -38 -55 -5 -73 56 -19 67 14 2 17 -2 12 -18 -3
-12 -1 -21 5 -21 16 0 4 45 -13 48 -8 1 -23 -6 -32 -16z"/>
<path d="M1415 1186 c-11 -8 -17 -18 -13 -22 4 -3 -4 -16 -18 -26 -14 -11 -23
-23 -20 -26 3 -2 12 1 20 7 11 9 20 10 35 1 14 -7 21 -7 21 0 0 5 -4 10 -10
10 -5 0 -10 9 -10 21 0 11 5 17 10 14 6 -3 10 -1 10 5 0 6 5 8 11 4 7 -4 10
-1 7 6 -6 20 -21 22 -43 6z"/>
</g>
</svg>
